<mxfile host="app.diagrams.net" agent="Mozilla/5.0 (Windows NT 10.0; Win64; x64) AppleWebKit/537.36 (KHTML, like Gecko) Chrome/136.0.0.0 Safari/537.36" version="27.0.6">
  <diagram name="第 1 页" id="SSOsHyqkviSzr-_O9SND">
    <mxGraphModel dx="1426" dy="751" grid="1" gridSize="10" guides="1" tooltips="1" connect="1" arrows="1" fold="1" page="1" pageScale="1" pageWidth="827" pageHeight="1169" math="0" shadow="0">
      <root>
        <mxCell id="0" />
        <mxCell id="1" parent="0" />
        <mxCell id="oqUxkzWhxeDz0j_Ak7hh-4" style="edgeStyle=orthogonalEdgeStyle;rounded=0;orthogonalLoop=1;jettySize=auto;html=1;entryX=0;entryY=0.5;entryDx=0;entryDy=0;fontSize=16;fillColor=#e51400;strokeColor=#B20000;" parent="1" source="oqUxkzWhxeDz0j_Ak7hh-1" target="oqUxkzWhxeDz0j_Ak7hh-2" edge="1">
          <mxGeometry relative="1" as="geometry" />
        </mxCell>
        <mxCell id="oqUxkzWhxeDz0j_Ak7hh-1" value="" style="rounded=1;whiteSpace=wrap;html=1;fontSize=16;fillColor=#f8cecc;strokeColor=#b85450;" parent="1" vertex="1">
          <mxGeometry x="135" y="190" width="150" height="200" as="geometry" />
        </mxCell>
        <mxCell id="cljHFGJP0wQZVTjVBw3U-1" value="&lt;font style=&quot;vertical-align: inherit;&quot; class=&quot;notranslate fyzs-translate-target fyzs-translate-target-wrapper&quot;&gt;&lt;font style=&quot;vertical-align: inherit;&quot; class=&quot;notranslate fyzs-translate-target fyzs-translate-target-box&quot;&gt;&lt;font style=&quot;vertical-align: inherit;&quot; title=&quot;s&quot; class=&quot;notranslate fyzs-translate-target fyzs-translate-target-text&quot;&gt;事件源&lt;/font&gt;&lt;/font&gt;&lt;/font&gt;" style="rounded=1;whiteSpace=wrap;html=1;fontSize=16;fillColor=#e51400;fontColor=#ffffff;strokeColor=#B20000;" parent="1" vertex="1">
          <mxGeometry x="150" y="200" width="120" height="60" as="geometry" />
        </mxCell>
        <mxCell id="cljHFGJP0wQZVTjVBw3U-2" value="&lt;font style=&quot;vertical-align: inherit;&quot; class=&quot;notranslate fyzs-translate-target fyzs-translate-target-wrapper&quot;&gt;&lt;font style=&quot;vertical-align: inherit;&quot; class=&quot;notranslate fyzs-translate-target fyzs-translate-target-box&quot;&gt;&lt;font style=&quot;vertical-align: inherit;&quot; title=&quot;s&quot; class=&quot;notranslate fyzs-translate-target fyzs-translate-target-text&quot;&gt;事件类型&lt;/font&gt;&lt;/font&gt;&lt;/font&gt;" style="rounded=1;whiteSpace=wrap;html=1;fontSize=16;fillColor=#e51400;fontColor=#ffffff;strokeColor=#B20000;" parent="1" vertex="1">
          <mxGeometry x="150" y="320" width="120" height="60" as="geometry" />
        </mxCell>
        <mxCell id="oqUxkzWhxeDz0j_Ak7hh-2" value="&lt;font style=&quot;vertical-align: inherit;&quot; class=&quot;notranslate fyzs-translate-target fyzs-translate-target-wrapper&quot;&gt;&lt;font style=&quot;vertical-align: inherit;&quot; class=&quot;notranslate fyzs-translate-target fyzs-translate-target-box&quot;&gt;&lt;font style=&quot;vertical-align: inherit;&quot; title=&quot;s&quot; class=&quot;notranslate fyzs-translate-target fyzs-translate-target-text&quot;&gt;事件&lt;/font&gt;&lt;/font&gt;&lt;/font&gt;" style="rounded=1;whiteSpace=wrap;html=1;fontSize=16;fillColor=#e51400;fontColor=#ffffff;strokeColor=#B20000;" parent="1" vertex="1">
          <mxGeometry x="450" y="260" width="120" height="60" as="geometry" />
        </mxCell>
        <mxCell id="oqUxkzWhxeDz0j_Ak7hh-3" value="&lt;font style=&quot;vertical-align: inherit;&quot; class=&quot;notranslate fyzs-translate-target fyzs-translate-target-wrapper&quot;&gt;&lt;font style=&quot;vertical-align: inherit;&quot; class=&quot;notranslate fyzs-translate-target fyzs-translate-target-box&quot;&gt;&lt;font style=&quot;vertical-align: inherit;&quot; title=&quot;j&quot; class=&quot;notranslate fyzs-translate-target fyzs-translate-target-text&quot;&gt;监听器&lt;/font&gt;&lt;/font&gt;&lt;/font&gt;" style="rounded=1;whiteSpace=wrap;html=1;fontSize=16;fillColor=#e51400;fontColor=#ffffff;strokeColor=#B20000;" parent="1" vertex="1">
          <mxGeometry x="760" y="260" width="120" height="60" as="geometry" />
        </mxCell>
        <mxCell id="oqUxkzWhxeDz0j_Ak7hh-5" value="&lt;font style=&quot;vertical-align: inherit;&quot; class=&quot;notranslate fyzs-translate-target fyzs-translate-target-wrapper&quot;&gt;&lt;font style=&quot;vertical-align: inherit;&quot; class=&quot;notranslate fyzs-translate-target fyzs-translate-target-box&quot;&gt;&lt;font style=&quot;vertical-align: inherit;&quot; title=&quot;Text&quot; class=&quot;notranslate fyzs-translate-target fyzs-translate-target-text&quot;&gt;触发&lt;/font&gt;&lt;/font&gt;&lt;/font&gt;" style="text;html=1;align=center;verticalAlign=middle;resizable=0;points=[];autosize=1;strokeColor=none;fillColor=none;fontSize=16;" parent="1" vertex="1">
          <mxGeometry x="335" y="250" width="60" height="30" as="geometry" />
        </mxCell>
        <mxCell id="oqUxkzWhxeDz0j_Ak7hh-6" value="" style="endArrow=classic;html=1;rounded=0;entryX=0;entryY=0.25;entryDx=0;entryDy=0;exitX=1;exitY=0.25;exitDx=0;exitDy=0;fontSize=16;fillColor=#e51400;strokeColor=#B20000;" parent="1" source="oqUxkzWhxeDz0j_Ak7hh-2" target="oqUxkzWhxeDz0j_Ak7hh-3" edge="1">
          <mxGeometry width="50" height="50" relative="1" as="geometry">
            <mxPoint x="570" y="270" as="sourcePoint" />
            <mxPoint x="750" y="270" as="targetPoint" />
          </mxGeometry>
        </mxCell>
        <mxCell id="oqUxkzWhxeDz0j_Ak7hh-7" value="" style="endArrow=classic;html=1;rounded=0;entryX=1;entryY=0.75;entryDx=0;entryDy=0;exitX=0;exitY=0.75;exitDx=0;exitDy=0;fontSize=16;" parent="1" source="oqUxkzWhxeDz0j_Ak7hh-3" target="oqUxkzWhxeDz0j_Ak7hh-2" edge="1">
          <mxGeometry width="50" height="50" relative="1" as="geometry">
            <mxPoint x="710" y="360" as="sourcePoint" />
            <mxPoint x="760" y="310" as="targetPoint" />
          </mxGeometry>
        </mxCell>
        <mxCell id="oqUxkzWhxeDz0j_Ak7hh-8" value="&lt;font style=&quot;vertical-align: inherit;&quot; class=&quot;notranslate fyzs-translate-target fyzs-translate-target-wrapper&quot;&gt;&lt;font style=&quot;vertical-align: inherit;&quot; class=&quot;notranslate fyzs-translate-target fyzs-translate-target-box&quot;&gt;&lt;font style=&quot;vertical-align: inherit;&quot; title=&quot;Text&quot; class=&quot;notranslate fyzs-translate-target fyzs-translate-target-text&quot;&gt;注册&lt;/font&gt;&lt;/font&gt;&lt;/font&gt;" style="text;html=1;align=center;verticalAlign=middle;resizable=0;points=[];autosize=1;strokeColor=none;fillColor=none;fontSize=16;" parent="1" vertex="1">
          <mxGeometry x="620" y="308" width="60" height="30" as="geometry" />
        </mxCell>
        <mxCell id="oqUxkzWhxeDz0j_Ak7hh-9" value="&lt;font style=&quot;vertical-align: inherit;&quot; class=&quot;notranslate fyzs-translate-target fyzs-translate-target-wrapper&quot;&gt;&lt;font style=&quot;vertical-align: inherit;&quot; class=&quot;notranslate fyzs-translate-target fyzs-translate-target-box&quot;&gt;&lt;font style=&quot;vertical-align: inherit;&quot; title=&quot;Text&quot; class=&quot;notranslate fyzs-translate-target fyzs-translate-target-text&quot;&gt;监听&lt;/font&gt;&lt;/font&gt;&lt;/font&gt;" style="text;html=1;align=center;verticalAlign=middle;resizable=0;points=[];autosize=1;strokeColor=none;fillColor=none;fontSize=16;" parent="1" vertex="1">
          <mxGeometry x="620" y="238" width="60" height="30" as="geometry" />
        </mxCell>
      </root>
    </mxGraphModel>
  </diagram>
</mxfile>
